<svg width="24" height="24" viewBox="0 0 24 24" fill="none" xmlns="http://www.w3.org/2000/svg">
<path fill-rule="evenodd" clip-rule="evenodd" d="M16 5V6H15V9H13.5C13.2098 9.0001 12.9259 8.91604 12.6825 8.758C12.1295 8.99499 11.518 9.06023 10.9275 8.94527C10.337 8.8303 9.79462 8.54043 9.37092 8.11331C8.94722 7.68618 8.66173 7.14152 8.55153 6.55007C8.44132 5.95862 8.5115 5.3477 8.75293 4.79664C8.99437 4.24558 9.39592 3.77984 9.90543 3.4599C10.4149 3.13997 11.0089 2.98062 11.6101 3.00254C12.2113 3.02447 12.7921 3.22666 13.2769 3.58286C13.7618 3.93906 14.1283 4.43281 14.329 5H16ZM9.7675 5C9.94307 4.69589 10.1956 4.44337 10.4997 4.26783C10.8039 4.09229 11.1489 3.99992 11.5 4C12.24 4 12.8865 4.402 13.2325 5H9.7675ZM9.5 6C9.49992 6.31053 9.57216 6.61681 9.71098 6.89459C9.8498 7.17236 10.0514 7.414 10.2998 7.60035C10.5482 7.7867 10.8366 7.91265 11.1421 7.96821C11.4476 8.02378 11.7619 8.00745 12.06 7.9205C12.0202 7.78389 12 7.6423 12 7.5V6H9.5ZM13 7.5C13 7.6326 13.0527 7.75978 13.1464 7.85355C13.2402 7.94732 13.3674 8 13.5 8H14V6H13V7.5ZM7.5 10.677C7.3123 10.4642 7.08148 10.2938 6.82286 10.1771C6.56424 10.0603 6.28374 9.99998 6 10H6.5C6.63261 10 6.75979 9.94732 6.85355 9.85355C6.94732 9.75978 7 9.6326 7 9.5C7 9.36739 6.94732 9.24021 6.85355 9.14644C6.75979 9.05267 6.63261 9 6.5 9H4.5C4.36739 9 4.24021 9.05267 4.14645 9.14644C4.05268 9.24021 4 9.36739 4 9.5C4 9.6326 4.05268 9.75978 4.14645 9.85355C4.24021 9.94732 4.36739 10 4.5 10H5C4.46957 10 3.96086 10.2107 3.58579 10.5858C3.21071 10.9609 3 11.4696 3 12V15C3 15.5304 3.21071 16.0391 3.58579 16.4142C3.96086 16.7893 4.46957 17 5 17H5.027C5.1555 18.175 5.737 19.14 6.605 19.825C7.5835 20.5965 8.906 21 10.33 21C12.424 21 14.373 20.224 15.221 18.474C15.5103 18.5288 15.8094 18.4972 16.0808 18.3832C16.3523 18.2692 16.5843 18.0778 16.7477 17.8329C16.9112 17.5879 16.9989 17.3003 17 17.0059C17.0012 16.7114 16.9156 16.4231 16.754 16.177L18.2205 15.43L17.7665 14.539L15.834 15.5235L13 14.46V11.5C13 11.1022 12.842 10.7206 12.5607 10.4393C12.2794 10.158 11.8978 10 11.5 10H9C8.71626 9.99998 8.43576 10.0603 8.17714 10.1771C7.91852 10.2938 7.6877 10.4642 7.5 10.677ZM4 12C4 11.7348 4.10536 11.4804 4.29289 11.2929C4.48043 11.1054 4.73478 11 5 11H6C6.26522 11 6.51957 11.1054 6.70711 11.2929C6.89464 11.4804 7 11.7348 7 12V15C7 15.2652 6.89464 15.5196 6.70711 15.7071C6.51957 15.8946 6.26522 16 6 16H5C4.73478 16 4.48043 15.8946 4.29289 15.7071C4.10536 15.5196 4 15.2652 4 15V12ZM7.2065 16.595C6.86861 16.8508 6.45821 16.9926 6.0345 17C6.1555 17.849 6.5855 18.5355 7.2245 19.0395C7.9935 19.6465 9.086 20 10.3295 20C12.167 20 13.6105 19.3565 14.267 18.14L12.3155 17.4075C11.983 17.8107 11.551 18.1202 11.0622 18.3052C10.5734 18.4902 10.0448 18.5443 9.52866 18.4622C9.01251 18.3801 8.52675 18.1647 8.11946 17.8372C7.71217 17.5097 7.39746 17.0815 7.2065 16.595ZM11.2945 17.025L10.9735 16.9045C10.6876 16.7973 10.4411 16.6054 10.2672 16.3544C10.0932 16.1035 10 15.8054 10 15.5V13C9.99987 12.76 10.0574 12.5234 10.1676 12.3102C10.2779 12.097 10.4377 11.9133 10.6337 11.7747C10.8296 11.6361 11.056 11.5465 11.2937 11.5135C11.5315 11.4805 11.7737 11.505 12 11.585V11.5C12 11.3674 11.9473 11.2402 11.8536 11.1464C11.7598 11.0527 11.6326 11 11.5 11H9C8.73478 11 8.48043 11.1054 8.29289 11.2929C8.10536 11.4804 8 11.7348 8 12V15.5C7.99992 15.8817 8.10908 16.2555 8.31461 16.5772C8.52013 16.8989 8.81343 17.1551 9.15986 17.3154C9.50628 17.4758 9.89137 17.5336 10.2696 17.4822C10.6479 17.4307 11.0035 17.2721 11.2945 17.025ZM12 14.46C12 14.6636 12.0621 14.8624 12.1781 15.0297C12.2941 15.1971 12.4583 15.325 12.649 15.3965L15.6755 16.5315C15.7963 16.5805 15.8931 16.6747 15.9455 16.794C15.9978 16.9133 16.0015 17.0484 15.9558 17.1704C15.91 17.2924 15.8184 17.3917 15.7005 17.4472C15.5826 17.5027 15.4477 17.51 15.3245 17.4675L11.3245 15.9675C11.2293 15.9318 11.1472 15.8679 11.0893 15.7844C11.0313 15.7009 11.0001 15.6017 11 15.5V13C11 12.8674 11.0527 12.7402 11.1464 12.6464C11.2402 12.5527 11.3674 12.5 11.5 12.5C11.6326 12.5 11.7598 12.5527 11.8536 12.6464C11.9473 12.7402 12 12.8674 12 13V14.46Z" fill="#1E1E1E"/>
<path d="M20.076 12.235L20.924 12.765L20.152 14H21V15H18.348L20.076 12.235Z" fill="#1E1E1E"/>
</svg>
