<svg width="20" height="20" viewBox="0 0 20 20" fill="none" xmlns="http://www.w3.org/2000/svg">
<path fill-rule="evenodd" clip-rule="evenodd" d="M14.725 13.334C15.695 9.71099 13.389 5.95699 9.58997 4.93899C5.32297 3.79499 -0.725028 6.76199 0.543972 10.35C0.926972 11.434 1.67797 11.691 3.22597 11.713L3.33397 11.715C4.43397 11.728 4.80497 11.815 5.01197 12.151C5.22597 12.499 5.22797 12.907 5.06597 13.939C4.99897 14.361 4.97797 14.508 4.95297 14.733C4.80797 16.033 5.01997 17.007 5.84297 17.893C8.42697 20.677 13.631 17.414 14.725 13.334ZM1.48597 10.017C0.577972 7.44699 5.70297 4.93299 9.33097 5.90499C12.608 6.78299 14.583 9.99799 13.759 13.075C12.835 16.521 8.47197 19.257 6.57597 17.215C5.98197 16.575 5.83097 15.882 5.94597 14.845C5.96997 14.64 5.98997 14.501 6.05397 14.095C6.25397 12.82 6.25097 12.259 5.86397 11.628C5.39897 10.872 4.80497 10.734 3.34697 10.716L3.23997 10.714C2.08097 10.698 1.67797 10.56 1.48597 10.017Z" fill="#1E1E1E"/>
<path d="M4.75 9.49999C4.41848 9.49999 4.10054 9.36829 3.86612 9.13387C3.6317 8.89945 3.5 8.58151 3.5 8.24999C3.5 7.91847 3.6317 7.60052 3.86612 7.3661C4.10054 7.13168 4.41848 6.99999 4.75 6.99999C5.08152 6.99999 5.39946 7.13168 5.63388 7.3661C5.8683 7.60052 6 7.91847 6 8.24999C6 8.58151 5.8683 8.89945 5.63388 9.13387C5.39946 9.36829 5.08152 9.49999 4.75 9.49999ZM8.75 9.49999C8.41848 9.49999 8.10054 9.36829 7.86612 9.13387C7.6317 8.89945 7.5 8.58151 7.5 8.24999C7.5 7.91847 7.6317 7.60052 7.86612 7.3661C8.10054 7.13168 8.41848 6.99999 8.75 6.99999C9.08152 6.99999 9.39946 7.13168 9.63388 7.3661C9.8683 7.60052 10 7.91847 10 8.24999C10 8.58151 9.8683 8.89945 9.63388 9.13387C9.39946 9.36829 9.08152 9.49999 8.75 9.49999ZM11.25 12.5C10.9185 12.5 10.6005 12.3683 10.3661 12.1339C10.1317 11.8994 10 11.5815 10 11.25C10 10.9185 10.1317 10.6005 10.3661 10.3661C10.6005 10.1317 10.9185 9.99999 11.25 9.99999C11.5815 9.99999 11.8995 10.1317 12.1339 10.3661C12.3683 10.6005 12.5 10.9185 12.5 11.25C12.5 11.5815 12.3683 11.8994 12.1339 12.1339C11.8995 12.3683 11.5815 12.5 11.25 12.5ZM9.75 16C9.41848 16 9.10054 15.8683 8.86612 15.6339C8.6317 15.3994 8.5 15.0815 8.5 14.75C8.5 14.4185 8.6317 14.1005 8.86612 13.8661C9.10054 13.6317 9.41848 13.5 9.75 13.5C10.0815 13.5 10.3995 13.6317 10.6339 13.8661C10.8683 14.1005 11 14.4185 11 14.75C11 15.0815 10.8683 15.3994 10.6339 15.6339C10.3995 15.8683 10.0815 16 9.75 16ZM13.37 3.60499C13.4886 3.54146 13.6187 3.50251 13.7527 3.49047C13.8867 3.47842 14.0217 3.49353 14.1497 3.53489C14.2777 3.57625 14.3961 3.64301 14.4977 3.73117C14.5993 3.81934 14.682 3.92709 14.741 4.04799L18.834 12.448C18.9023 12.599 18.9106 12.7703 18.8571 12.9272C18.8037 13.0841 18.6925 13.2147 18.5461 13.2925C18.3998 13.3703 18.2293 13.3895 18.0694 13.3461C17.9094 13.3027 17.772 13.2001 17.685 13.059L12.977 4.98899C12.9096 4.87282 12.8663 4.74428 12.8497 4.61102C12.833 4.47775 12.8434 4.3425 12.8802 4.21334C12.9169 4.08417 12.9794 3.96374 13.0637 3.85922C13.148 3.7547 13.2525 3.66823 13.371 3.60499" fill="#1E1E1E"/>
<path fill-rule="evenodd" clip-rule="evenodd" d="M11.538 3.48399C12.024 4.39899 12.843 4.65499 13.635 4.23399C14.426 3.81399 14.673 2.99099 14.186 2.07599C13.63 1.02799 12.438 0.0779945 11.648 0.496995C10.858 0.915995 10.98 2.43599 11.538 3.48399ZM12.42 3.01399C12.2437 2.65813 12.1352 2.27257 12.1 1.87699C12.0854 1.71156 12.0914 1.54494 12.118 1.38099L12.136 1.38999C12.186 1.41399 12.341 1.48599 12.539 1.64399C12.841 1.88499 13.141 2.23999 13.303 2.54499C13.532 2.97499 13.467 3.19099 13.165 3.35199C12.865 3.51199 12.649 3.44399 12.42 3.01499" fill="#1E1E1E"/>
</svg>
