<svg width="20" height="20" viewBox="0 0 20 20" fill="none" xmlns="http://www.w3.org/2000/svg">
<path fill-rule="evenodd" clip-rule="evenodd" d="M14.725 13.3341C15.695 9.71105 13.389 5.95705 9.58997 4.93905C5.32297 3.79505 -0.725028 6.76205 0.543972 10.3501C0.926972 11.4341 1.67797 11.6911 3.22597 11.7131L3.33397 11.7151C4.43397 11.7281 4.80497 11.8151 5.01197 12.1511C5.22597 12.4991 5.22797 12.9071 5.06597 13.9391C4.99897 14.3611 4.97797 14.5081 4.95297 14.7331C4.80797 16.0331 5.01997 17.0071 5.84297 17.8931C8.42697 20.6771 13.631 17.4141 14.725 13.3341ZM1.48597 10.0171C0.577972 7.44705 5.70297 4.93305 9.33097 5.90505C12.608 6.78305 14.583 9.99805 13.759 13.0751C12.835 16.5211 8.47197 19.2571 6.57597 17.2151C5.98197 16.5751 5.83097 15.8821 5.94597 14.8451C5.96997 14.6401 5.98997 14.5011 6.05397 14.0951C6.25397 12.8201 6.25097 12.2591 5.86397 11.6281C5.39897 10.8721 4.80497 10.7341 3.34697 10.7161L3.23997 10.7141C2.08097 10.6981 1.67797 10.5601 1.48597 10.0171Z" fill="#F0F0F0"/>
<path d="M4.75 9.50011C4.41848 9.50011 4.10054 9.36841 3.86612 9.13399C3.6317 8.89957 3.5 8.58163 3.5 8.25011C3.5 7.91859 3.6317 7.60065 3.86612 7.36622C4.10054 7.1318 4.41848 7.00011 4.75 7.00011C5.08152 7.00011 5.39946 7.1318 5.63388 7.36622C5.8683 7.60065 6 7.91859 6 8.25011C6 8.58163 5.8683 8.89957 5.63388 9.13399C5.39946 9.36841 5.08152 9.50011 4.75 9.50011ZM8.75 9.50011C8.41848 9.50011 8.10054 9.36841 7.86612 9.13399C7.6317 8.89957 7.5 8.58163 7.5 8.25011C7.5 7.91859 7.6317 7.60065 7.86612 7.36622C8.10054 7.1318 8.41848 7.00011 8.75 7.00011C9.08152 7.00011 9.39946 7.1318 9.63388 7.36622C9.8683 7.60065 10 7.91859 10 8.25011C10 8.58163 9.8683 8.89957 9.63388 9.13399C9.39946 9.36841 9.08152 9.50011 8.75 9.50011ZM11.25 12.5001C10.9185 12.5001 10.6005 12.3684 10.3661 12.134C10.1317 11.8996 10 11.5816 10 11.2501C10 10.9186 10.1317 10.6006 10.3661 10.3662C10.6005 10.1318 10.9185 10.0001 11.25 10.0001C11.5815 10.0001 11.8995 10.1318 12.1339 10.3662C12.3683 10.6006 12.5 10.9186 12.5 11.2501C12.5 11.5816 12.3683 11.8996 12.1339 12.134C11.8995 12.3684 11.5815 12.5001 11.25 12.5001ZM9.75 16.0001C9.41848 16.0001 9.10054 15.8684 8.86612 15.634C8.6317 15.3996 8.5 15.0816 8.5 14.7501C8.5 14.4186 8.6317 14.1006 8.86612 13.8662C9.10054 13.6318 9.41848 13.5001 9.75 13.5001C10.0815 13.5001 10.3995 13.6318 10.6339 13.8662C10.8683 14.1006 11 14.4186 11 14.7501C11 15.0816 10.8683 15.3996 10.6339 15.634C10.3995 15.8684 10.0815 16.0001 9.75 16.0001ZM13.37 3.60511C13.4886 3.54158 13.6187 3.50263 13.7527 3.49059C13.8867 3.47854 14.0217 3.49365 14.1497 3.53501C14.2777 3.57637 14.3961 3.64313 14.4977 3.7313C14.5993 3.81946 14.682 3.92721 14.741 4.04811L18.834 12.4481C18.9023 12.5991 18.9106 12.7704 18.8571 12.9273C18.8037 13.0842 18.6925 13.2148 18.5461 13.2926C18.3998 13.3704 18.2293 13.3896 18.0694 13.3462C17.9094 13.3029 17.772 13.2002 17.685 13.0591L12.977 4.98911C12.9096 4.87295 12.8663 4.7444 12.8497 4.61114C12.833 4.47787 12.8434 4.34263 12.8802 4.21346C12.9169 4.0843 12.9794 3.96386 13.0637 3.85934C13.148 3.75482 13.2525 3.66836 13.371 3.60511" fill="#F0F0F0"/>
<path fill-rule="evenodd" clip-rule="evenodd" d="M11.538 3.48406C12.024 4.39906 12.843 4.65506 13.635 4.23406C14.426 3.81406 14.673 2.99106 14.186 2.07606C13.63 1.02806 12.438 0.0780555 11.648 0.497056C10.858 0.916056 10.98 2.43606 11.538 3.48406ZM12.42 3.01406C12.2437 2.6582 12.1352 2.27263 12.1 1.87706C12.0854 1.71162 12.0914 1.545 12.118 1.38106L12.136 1.39006C12.186 1.41406 12.341 1.48606 12.539 1.64406C12.841 1.88506 13.141 2.24006 13.303 2.54506C13.532 2.97506 13.467 3.19106 13.165 3.35206C12.865 3.51206 12.649 3.44406 12.42 3.01506" fill="#F0F0F0"/>
</svg>
